# xmcd
#
# Track frame offsets:
#	150
#	15108
#	34177
#	50439
#	67352
#	83873
#	99323
#	117481
#	134432
#	151689
#	167878
#	182628
#	198174
#
# Disc length: 2655
#
# Revision: 1
# Processed by: cddbd v1.5.1PL0 Copyright (c) Steve Scherf et al.
# Submitted via: VisiTrax 2.9.5.180 - For more info visit www.synapsa.com
# Normalized: r0:DSETVAR1
#
DISCID=a60a5d0d
DTITLE=Various Artist - CDX 242 June 2000
DYEAR=2000
DGENRE=
TTITLE0=Kathy Mattea - BFD
TTITLE1=Rebecca Lynn Howard - I don't paint myself into corners
TTITLE2=Daryle Singletar - I knew I loved you
TTITLE3=Clint Black - Love she can't live without
TTITLE4=Craig Morgan - Paradise
TTITLE5=Chad Brock - The visit
TTITLE6=Yankee Grey - This time around
TTITLE7=Collin Rae/Robbie Eakes - Tired of loving this way
TTITLE8=Brad Paisley - We danced
TTITLE9=Chalee Tennison - What I tell myself
TTITLE10=Tony Stample - American offline
TTITLE11=Greg Allen - Bassholes forever
TTITLE12=4 Sisters and A Cousin - Happy birthday America
EXTD=
EXTT0=
EXTT1=
EXTT2=
EXTT3=
EXTT4=
EXTT5=
EXTT6=
EXTT7=
EXTT8=
EXTT9=
EXTT10=
EXTT11=
EXTT12=
PLAYORDER=
